<svg width="24" height="27" viewBox="0 0 24 27" fill="none" xmlns="http://www.w3.org/2000/svg">
<path d="M12 6.73438C13.16 6.73438 14.1 7.7625 14.1 9.03125C14.1 10.3 13.16 11.3281 12 11.3281C10.84 11.3281 9.9 10.3 9.9 9.03125C9.9 7.7625 10.84 6.73438 12 6.73438ZM12 16.5781C14.97 16.5781 18.1 18.175 18.1 18.875V20.0781H5.9V18.875C5.9 18.175 9.03 16.5781 12 16.5781ZM12 4.65625C9.79 4.65625 8 6.61406 8 9.03125C8 11.4484 9.79 13.4062 12 13.4062C14.21 13.4062 16 11.4484 16 9.03125C16 6.61406 14.21 4.65625 12 4.65625ZM12 14.5C9.33 14.5 4 15.9656 4 18.875V22.1562H20V18.875C20 15.9656 14.67 14.5 12 14.5Z" fill="#21281F" fill-opacity="0.75"/>
</svg>
